<?xml version="1.0" encoding="UTF-8" standalone="no"?>
<svg width="108px" height="108px" viewBox="0 0 108 108" version="1.1" xmlns="http://www.w3.org/2000/svg" xmlns:xlink="http://www.w3.org/1999/xlink" xmlns:sketch="http://www.bohemiancoding.com/sketch/ns">
    <!-- Generator: Sketch 3.4.4 (17249) - http://www.bohemiancoding.com/sketch -->
    <title>Group Copy 2</title>
    <desc>Created with Sketch.</desc>
    <defs></defs>
    <g id="Page-1" stroke="none" stroke-width="1" fill="none" fill-rule="evenodd" sketch:type="MSPage">
        <g id="Logos-A" sketch:type="MSArtboardGroup" transform="translate(-572.000000, -185.000000)" fill="#FFFFFF">
            <g id="Group-Copy-2" sketch:type="MSLayerGroup" transform="translate(572.000000, 185.000000)">
                <path d="M10.196,107.314 L0,107.314 L0,0 L10.196,0 L10.196,107.314 Z" id="Fill-43" sketch:type="MSShapeGroup"></path>
                <path d="M31.196,107.314 L21,107.314 L21,0 L31.196,0 L31.196,107.314 Z" id="Fill-45" sketch:type="MSShapeGroup"></path>
                <path d="M86.196,107.314 L76,107.314 L76,0 L86.196,0 L86.196,107.314 Z" id="Fill-46" sketch:type="MSShapeGroup"></path>
                <path d="M107.196,107.314 L97,107.314 L97,0 L107.196,0 L107.196,107.314 Z" id="Fill-47" sketch:type="MSShapeGroup"></path>
                <path d="M75.359,51.374 L86.315,51.374 L53.657,23 L21,51.374 L31.195,51.374 L53.657,34.799 L75.359,51.374 Z" id="Fill-48" sketch:type="MSShapeGroup"></path>
                <path d="M97.0245755,76.497 L107.196,73.126 L53.5975012,47 L0,72.002 L10.1714245,76.497 L53.5975012,58.518 L97.0245755,76.497 Z" id="Fill-49" sketch:type="MSShapeGroup"></path>
            </g>
        </g>
    </g>
</svg>